<mxfile host="app.diagrams.net" modified="2024-04-12T23:15:44.528Z" agent="Mozilla/5.0 (Windows NT 10.0; Win64; x64) AppleWebKit/537.36 (KHTML, like Gecko) Chrome/123.0.0.0 Safari/537.36" version="24.2.5" etag="j9jZAqfbqIQOWIAWQv1-" type="github">
  <diagram name="PÃ¡gina-1" id="M9UyMpvlTQLXSSLbmqMk">
    <mxGraphModel>
      <root>
        <mxCell id="0" />
        <mxCell id="1" parent="0" />
      </root>
    </mxGraphModel>
  </diagram>
</mxfile>
